<svg id="Group_1172" data-name="Group 1172" xmlns="http://www.w3.org/2000/svg" xmlns:xlink="http://www.w3.org/1999/xlink" width="92.97" height="95.316" viewBox="0 0 92.97 95.316">
  <defs>
    <clipPath id="clip-path">
      <rect id="Rectangle_1855" data-name="Rectangle 1855" width="92.97" height="95.316" fill="none"/>
    </clipPath>
    <clipPath id="clip-path-3">
      <rect id="Rectangle_1849" data-name="Rectangle 1849" width="50.649" height="5.528" fill="none"/>
    </clipPath>
    <clipPath id="clip-path-5">
      <rect id="Rectangle_1851" data-name="Rectangle 1851" width="8.554" height="4.658" fill="none"/>
    </clipPath>
    <clipPath id="clip-path-6">
      <rect id="Rectangle_1853" data-name="Rectangle 1853" width="5.474" height="19.937" fill="none"/>
    </clipPath>
  </defs>
  <g id="Group_1064" data-name="Group 1064" clip-path="url(#clip-path)">
    <g id="Group_1055" data-name="Group 1055">
      <g id="Group_1054" data-name="Group 1054" clip-path="url(#clip-path)">
        <g id="Group_1053" data-name="Group 1053" transform="translate(38.934 89.788)" opacity="0.3">
          <g id="Group_1052" data-name="Group 1052">
            <g id="Group_1051" data-name="Group 1051" clip-path="url(#clip-path-3)">
              <path id="Path_258" data-name="Path 258" d="M64.793,412.994H29.874a15.343,15.343,0,0,1-6.049-1.224s-9.618-4.3-8.344-4.3l39.132,0c2.107,0,10.746,3.639,10.746,3.639,1.128.486.708,1.89-.566,1.89" transform="translate(-15.365 -407.465)" fill="#1c404e"/>
            </g>
          </g>
        </g>
      </g>
    </g>
    <path id="Path_259" data-name="Path 259" d="M86.085,379.937h40.042l-16.771-7.5H69.314Z" transform="translate(-48.431 -290.368)" fill="#1c404e"/>
    <g id="Group_1063" data-name="Group 1063">
      <g id="Group_1062" data-name="Group 1062" clip-path="url(#clip-path)">
        <path id="Path_260" data-name="Path 260" d="M177.657,66.561c12.057,3.9,13.121-5.5,13.121-9.929v-9.4" transform="translate(-136.956 -36.826)" fill="none" stroke="#1c404e" stroke-miterlimit="10" stroke-width="2"/>
        <path id="Path_261" data-name="Path 261" d="M176.487,20.246s-2.482-9.929,2.6-9.574c0,0,14.409,5.907,15.236-2.13s-8.915-9.928-13.8-7.635-4.815,4.267-4.815,4.267-3.415.776-3.676,7.517c-.133,3.435.431,6.728,4.45,7.556" transform="translate(-139.309 0)" fill="#1c404e"/>
        <path id="Path_262" data-name="Path 262" d="M166.831,43.946a9.485,9.485,0,0,0,.155-12.306Z" transform="translate(-113.009 -24.668)" fill="#1c404e"/>
        <path id="Path_263" data-name="Path 263" d="M203.525,81.246s.654,1.409,1.113,2.557c.652,1.626-1.133,2.116-1.83,1.724" transform="translate(-156.5 -63.343)" fill="none" stroke="#1c404e" stroke-miterlimit="10" stroke-width="2"/>
        <path id="Path_264" data-name="Path 264" d="M193.451,79.224a.784.784,0,1,0,.784-.784.784.784,0,0,0-.784.784" transform="translate(-144.679 -61.155)" fill="#1c404e"/>
        <path id="Path_265" data-name="Path 265" d="M216.36,79.224a.784.784,0,1,0,.784-.784.784.784,0,0,0-.784.784" transform="translate(-172.636 -61.155)" fill="#1c404e"/>
        <line id="Line_37" data-name="Line 37" y2="15.962" transform="translate(36.404 20.126)" fill="none" stroke="#1c404e" stroke-miterlimit="10" stroke-width="2"/>
        <line id="Line_38" data-name="Line 38" y2="6.059" transform="translate(49.214 30.006)" fill="none" stroke="#1c404e" stroke-miterlimit="10" stroke-width="2"/>
        <g id="Group_1058" data-name="Group 1058" transform="translate(40.66 29.859)" opacity="0.3">
          <g id="Group_1057" data-name="Group 1057" transform="translate(0)">
            <g id="Group_1056" data-name="Group 1056" clip-path="url(#clip-path-5)">
              <path id="Path_266" data-name="Path 266" d="M207.118,140.153s-3.586.349-8.554-4.652c0,0,5.112,1.7,8.554.147Z" transform="translate(-198.564 -135.501)" fill="#1c404e"/>
            </g>
          </g>
        </g>
        <path id="Path_267" data-name="Path 267" d="M3.038,3.056A3.05,3.05,0,0,1,0,.066V0H6.076V.066a3.05,3.05,0,0,1-3.037,2.99" transform="translate(43.566 23.814)" fill="#1c404e"/>
        <path id="Path_268" data-name="Path 268" d="M258.555,163.766c-16.055,0-15.119,8.622-15.521,12.879-.758,8.016-1.943,21.243-1.943,21.243a4.268,4.268,0,0,0,1.063,3.324,4.167,4.167,0,0,0,1.411,1.139l14.768,9.538L262,205.3l-10.815-7.889,5.474-18" transform="translate(-222.151 -127.679)" fill="#fff"/>
        <path id="Path_269" data-name="Path 269" d="M258.555,163.766c-16.055,0-15.119,8.622-15.521,12.879-.758,8.016-1.943,21.243-1.943,21.243a4.268,4.268,0,0,0,1.063,3.324,4.167,4.167,0,0,0,1.411,1.139l14.768,9.538L262,205.3l-10.815-7.889,5.474-18" transform="translate(-222.151 -127.679)" fill="none" stroke="#1c404e" stroke-miterlimit="10" stroke-width="2"/>
        <path id="Path_270" data-name="Path 270" d="M122.009,163.766c11.071-.022,13.755,5.337,14.231,9.587l3.233,24.535a4.268,4.268,0,0,1-1.063,3.324A4.167,4.167,0,0,1,137,202.35l-15.44,7.677-2.3-3.484,1.392-1.177a2.347,2.347,0,0,1,.423-.36l.01-.006,8.3-8.428-1.5-18.155" transform="translate(-72.81 -127.679)" fill="#fff"/>
        <path id="Path_271" data-name="Path 271" d="M122.009,163.766c11.071-.022,13.755,5.337,14.231,9.587l3.233,24.535a4.268,4.268,0,0,1-1.063,3.324A4.167,4.167,0,0,1,137,202.35l-15.44,7.677-2.3-3.484,1.392-1.177a2.347,2.347,0,0,1,.423-.36l.01-.006,8.3-8.428-1.5-18.155" transform="translate(-72.81 -127.679)" fill="none" stroke="#1c404e" stroke-miterlimit="10" stroke-width="2"/>
        <path id="Path_272" data-name="Path 272" d="M53.168,291.4h39.1a3.939,3.939,0,0,0,3.939-3.939V262.53a3.939,3.939,0,0,0-3.939-3.939h-39.1a3.939,3.939,0,0,0-3.939,3.939v24.928a3.939,3.939,0,0,0,3.939,3.939" transform="translate(-14.083 -201.609)" fill="#ff8278"/>
        <rect id="Rectangle_1852" data-name="Rectangle 1852" width="46.975" height="32.805" rx="8" transform="translate(35.146 56.982)" fill="none" stroke="#1c404e" stroke-miterlimit="10" stroke-width="2"/>
        <path id="Path_273" data-name="Path 273" d="M135.723,331.335a4.673,4.673,0,0,1-4.653-4.581l0-.1h9.309l0,.1a4.673,4.673,0,0,1-4.653,4.581" transform="translate(-76.29 -254.673)" fill="#fff"/>
        <path id="Path_274" data-name="Path 274" d="M211.375,163.667s-4.338,6.558-12.811.022" transform="translate(-162.161 -127.602)" fill="#fff"/>
        <path id="Path_275" data-name="Path 275" d="M211.375,163.667s-4.338,6.558-12.811.022" transform="translate(-162.161 -127.602)" fill="none" stroke="#1c404e" stroke-miterlimit="10" stroke-width="2"/>
        <line id="Line_39" data-name="Line 39" x1="2.904" y1="0.779" transform="translate(48.889 15.125)" fill="none" stroke="#1c404e" stroke-miterlimit="10" stroke-width="2"/>
        <line id="Line_40" data-name="Line 40" x1="3.536" y2="1.541" transform="translate(41.401 14.953)" fill="none" stroke="#1c404e" stroke-miterlimit="10" stroke-width="2"/>
        <line id="Line_41" data-name="Line 41" y2="2.339" transform="translate(26.415 77.902)" fill="#fff"/>
        <line id="Line_42" data-name="Line 42" y2="2.339" transform="translate(26.415 77.902)" fill="none" stroke="#1c404e" stroke-miterlimit="10" stroke-width="2"/>
        <line id="Line_43" data-name="Line 43" x1="10.848" transform="translate(82.122 80.24)" fill="#fff"/>
        <line id="Line_44" data-name="Line 44" x1="10.848" transform="translate(82.122 80.24)" fill="none" stroke="#1c404e" stroke-miterlimit="10" stroke-width="2"/>
        <line id="Line_45" data-name="Line 45" x1="30.036" transform="translate(0 80.24)" fill="#fff"/>
        <line id="Line_46" data-name="Line 46" x1="30.036" transform="translate(0 80.24)" fill="none" stroke="#1c404e" stroke-miterlimit="10" stroke-width="2"/>
        <g id="Group_1061" data-name="Group 1061" transform="translate(29.035 51.728)" opacity="0.3">
          <g id="Group_1060" data-name="Group 1060" transform="translate(0)">
            <g id="Group_1059" data-name="Group 1059" clip-path="url(#clip-path-6)">
              <path id="Path_276" data-name="Path 276" d="M270.775,234.745l-2.994,19.937-2.48-1.934Z" transform="translate(-265.301 -234.744)" fill="#1c404e"/>
            </g>
          </g>
        </g>
      </g>
    </g>
  </g>
</svg>
