<svg xmlns="http://www.w3.org/2000/svg" xmlns:xlink="http://www.w3.org/1999/xlink" width="170" height="174" viewBox="0 0 170 174">
  <defs>
    <clipPath id="clip-path">
      <rect id="Rectangle_1855" data-name="Rectangle 1855" width="170" height="174" transform="translate(-0.191)" fill="none"/>
    </clipPath>
    <clipPath id="clip-path-3">
      <rect id="Rectangle_1849" data-name="Rectangle 1849" width="93" height="10" transform="translate(-0.305 0.002)" fill="none"/>
    </clipPath>
    <clipPath id="clip-path-5">
      <rect id="Rectangle_1851" data-name="Rectangle 1851" width="16" height="8" transform="translate(-0.457 0.463)" fill="none"/>
    </clipPath>
    <clipPath id="clip-path-6">
      <rect id="Rectangle_1853" data-name="Rectangle 1853" width="10" height="37" transform="translate(-0.223 -0.48)" fill="none"/>
    </clipPath>
  </defs>
  <g id="Group_1154" data-name="Group 1154" transform="translate(0.191)">
    <g id="Group_1064" data-name="Group 1064" clip-path="url(#clip-path)">
      <g id="Group_1055" data-name="Group 1055">
        <g id="Group_1054" data-name="Group 1054" clip-path="url(#clip-path)">
          <g id="Group_1053" data-name="Group 1053" transform="translate(71.114 163.997)" opacity="0.3">
            <g id="Group_1052" data-name="Group 1052">
              <g id="Group_1051" data-name="Group 1051" clip-path="url(#clip-path-3)">
                <path id="Path_258" data-name="Path 258" d="M106.059,417.468h-64a27.628,27.628,0,0,1-11-2s-17.327-8-15-8h71c3.849,0,20,7,20,7,2.061.888,1.327,3-1,3" transform="translate(-15.365 -407.465)" fill="#1c404e"/>
              </g>
            </g>
          </g>
        </g>
      </g>
      <path id="Path_259" data-name="Path 259" d="M99.98,386.538h73l-31-14h-73Z" transform="translate(-31.172 -222.538)" fill="#1c404e"/>
      <g id="Group_1063" data-name="Group 1063">
        <g id="Group_1062" data-name="Group 1062" clip-path="url(#clip-path)">
          <path id="Path_260" data-name="Path 260" d="M177.625,82.724c22.021,7.125,24-9.9,24-18v-17" transform="translate(-103.317 -28.224)" fill="none" stroke="#1c404e" stroke-miterlimit="10" stroke-width="2"/>
          <path id="Path_261" data-name="Path 261" d="M180.084,37s-4.284-18.648,5-18c0,0,26.489,11.681,28-3S196-2.187,187.084,2s-8,7-8,7-6.523,1.688-7,14c-.244,6.274.66,12.489,8,14" transform="translate(-112.275 0)" fill="#1c404e"/>
          <path id="Path_262" data-name="Path 262" d="M166.334,53.906s10.329-9.969,1-22Z" transform="translate(-68.526 -18.905)" fill="#1c404e"/>
          <path id="Path_263" data-name="Path 263" d="M204.535,81.046s1.16,2.9,2,5c1.19,2.971-2.727,3.716-4,3" transform="translate(-118.227 -48.546)" fill="none" stroke="#1c404e" stroke-miterlimit="10" stroke-width="2"/>
          <path id="Path_264" data-name="Path 264" d="M193.178,79.869c0,.791,1.209,1,2,1s1-.209,1-1-.209-1-1-1-2,.209-2,1" transform="translate(-104.368 -46.869)" fill="#1c404e"/>
          <path id="Path_265" data-name="Path 265" d="M216.307,79.869c0,.791.209,1,1,1s2-.209,2-1-1.209-1-2-1-1,.209-1,1" transform="translate(-136.498 -46.869)" fill="#1c404e"/>
          <line id="Line_37" data-name="Line 37" y2="29" transform="translate(66.309 36.5)" fill="none" stroke="#1c404e" stroke-miterlimit="10" stroke-width="2"/>
          <line id="Line_38" data-name="Line 38" y2="11" transform="translate(90.309 54.5)" fill="none" stroke="#1c404e" stroke-miterlimit="10" stroke-width="2"/>
          <g id="Group_1058" data-name="Group 1058" transform="translate(74.266 54.537)" opacity="0.3">
            <g id="Group_1057" data-name="Group 1057" transform="translate(0)">
              <g id="Group_1056" data-name="Group 1056" clip-path="url(#clip-path-5)">
                <path id="Path_266" data-name="Path 266" d="M214.107,143.964s-6.925,1.135-16-8c0,0,9.712,2.829,16,0Z" transform="translate(-198.564 -135.501)" fill="#1c404e"/>
              </g>
            </g>
          </g>
          <path id="Path_267" data-name="Path 267" d="M5.234,5.5a4.736,4.736,0,0,1-5-5v-1h11v1c-.046,3.011-2.987,5-6,5" transform="translate(79.574 43.497)" fill="#1c404e"/>
          <path id="Path_268" data-name="Path 268" d="M273.328,163.853c-29.325,0-28.265,15.224-29,23-1.384,14.642-3,39-3,39a7.675,7.675,0,0,0,2,6c.673.845.96,1.483,2,2l27,18,7-12-20-15,10-33" transform="translate(-206.52 -97.853)" fill="#fff"/>
          <path id="Path_269" data-name="Path 269" d="M272.828,163.353c-29.325,0-27.265,16.224-28,24-1.384,14.642-4,39-4,39a7.675,7.675,0,0,0,2,6,9.173,9.173,0,0,0,3,2l27,17,6-12-19-14,10-33" transform="translate(-206.52 -97.853)" fill="none" stroke="#1c404e" stroke-miterlimit="10" stroke-width="2"/>
          <path id="Path_270" data-name="Path 270" d="M124.23,163.853c20.221-.04,25.129,9.238,26,17l6,45a7.675,7.675,0,0,1-2,6,9.174,9.174,0,0,1-3,2l-28,14-4-6,3-2c.227-.243-.29-.808,0-1h0l16-15-3-33" transform="translate(-34.422 -97.853)" fill="#fff"/>
          <path id="Path_271" data-name="Path 271" d="M124.73,163.353c20.221-.04,25.129,10.238,26,18l5,45c.256,2.283.435,4.392-1,6a9.174,9.174,0,0,1-3,2l-28,14-4-6,2-3c.227-.243.71.192,1,0h0l15-16-3-33" transform="translate(-34.422 -97.853)" fill="none" stroke="#1c404e" stroke-miterlimit="10" stroke-width="2"/>
          <path id="Path_272" data-name="Path 272" d="M56.844,318.513h71a6.867,6.867,0,0,0,7-7v-46a6.867,6.867,0,0,0-7-7h-71c-3.973,0-8,3.027-8,7v46c0,3.973,4.027,7,8,7" transform="translate(14.965 -154.513)" fill="#ff8278"/>
          <rect id="Rectangle_1852" data-name="Rectangle 1852" width="86" height="59" rx="8" transform="translate(64.309 104.5)" fill="none" stroke="#1c404e" stroke-miterlimit="10" stroke-width="2"/>
          <path id="Path_273" data-name="Path 273" d="M139.824,335.181c-4.615,0-8.929-3.386-9-8v-1h17v1a7.8,7.8,0,0,1-8,8" transform="translate(-31.016 -195.181)" fill="#fff"/>
          <path id="Path_274" data-name="Path 274" d="M221.883,163.794s-7.524,11.938-23,0" transform="translate(-132.073 -97.794)" fill="#fff"/>
          <path id="Path_275" data-name="Path 275" d="M222.383,163.294s-8.524,11.938-24,0" transform="translate(-132.073 -97.794)" fill="none" stroke="#1c404e" stroke-miterlimit="10" stroke-width="2"/>
          <line id="Line_39" data-name="Line 39" x1="5" y1="2" transform="translate(89.309 27.5)" fill="none" stroke="#1c404e" stroke-miterlimit="10" stroke-width="2"/>
          <line id="Line_40" data-name="Line 40" x1="7" y2="3" transform="translate(75.309 27.5)" fill="none" stroke="#1c404e" stroke-miterlimit="10" stroke-width="2"/>
          <line id="Line_41" data-name="Line 41" y2="5" transform="translate(47.809 142)" fill="#fff"/>
          <line id="Line_42" data-name="Line 42" y2="4" transform="translate(48.309 142.5)" fill="none" stroke="#1c404e" stroke-miterlimit="10" stroke-width="2"/>
          <line id="Line_43" data-name="Line 43" x1="20" transform="translate(149.809 147)" fill="#fff"/>
          <line id="Line_44" data-name="Line 44" x1="19" transform="translate(150.309 146.5)" fill="none" stroke="#1c404e" stroke-miterlimit="10" stroke-width="2"/>
          <line id="Line_45" data-name="Line 45" x1="55" transform="translate(-0.191 147)" fill="#fff"/>
          <line id="Line_46" data-name="Line 46" x1="55" transform="translate(0.309 146.5)" fill="none" stroke="#1c404e" stroke-miterlimit="10" stroke-width="2"/>
          <g id="Group_1061" data-name="Group 1061" transform="translate(53.032 94.48)" opacity="0.3">
            <g id="Group_1060" data-name="Group 1060" transform="translate(0)">
              <g id="Group_1059" data-name="Group 1059" clip-path="url(#clip-path-6)">
                <path id="Path_276" data-name="Path 276" d="M275.078,234.264l-5,37-5-4Z" transform="translate(-265.301 -234.744)" fill="#1c404e"/>
              </g>
            </g>
          </g>
        </g>
      </g>
    </g>
  </g>
</svg>
